<?xml version="1.0" encoding="utf-8"?>
<!-- Generator: Adobe Illustrator 19.0.0, SVG Export Plug-In . SVG Version: 6.00 Build 0)  -->
<svg version="1.1" id="Layer_1" xmlns="http://www.w3.org/2000/svg" xmlns:xlink="http://www.w3.org/1999/xlink" x="0px" y="0px"
     viewBox="0 0 594 395" style="enable-background:new 0 0 594 395;" xml:space="preserve">
<g id="XMLID_1_">
	<path id="XMLID_249_" d="M140.2,337.3c-1.5,2.2-2.8,4.2-4.3,6.1c-2.4,3.2-5.5,5.1-9.5,5.6c-19.4,2.4-38.7,2-58.2,1
		c-17.1-0.8-24.7-11.8-30.4-25.5c-6.5-15.5-8-31.7-6.9-48.2c0.1-0.8,0-1.7,0-2.4c-0.5-0.1-0.7-0.2-0.8-0.2c-5.1,1.5-5.2,1.6-7.4-3.3
		c-8.2-17.7-14.5-36.1-16.2-55.6c-0.9-10.5-1.4-21.3,3-31.5c0.6-1.4,0.2-3.5-0.2-5.1c-2.6-10.3-3.4-20.8-2-31.3
		c0-0.3,0.1-0.6,0.1-0.9c1.3-8,1.9-8.4,9.9-9.4c13.1-1.5,26.3-2.4,39.4-1c7.4,0.8,15,1.7,22.2,3.7c7.7,2.2,15.2,1.5,22.9,0.7
		c20.5-2.4,41.1-3.3,61.7-1.2c1.3,0.1,2.7,0,4-0.4c33.1-8.4,66.6-10,100.5-8.3c20.6,1.1,41.1,3.4,61,9c8.8,2.5,17.3,6.1,25.6,9.8
		c7.7,3.4,12.8,10.1,17.5,16.9c8.3,12,16.4,24.2,24.4,36.5c1.9,3,3.8,4,7.3,3.4c18.6-3.1,37.3-3.9,56-3.3
		c22.2,0.7,44.2,3.4,65.3,10.9c18,6.4,34.9,14.7,48.1,29.1c14.4,15.6,19.9,34.3,18.6,55.2c-0.7,11.8-3.9,22.8-11.9,31.7
		c-3.2,3.6-5,7.3-6.2,11.9c-2.5,9.2-7.9,16.6-15.2,22.8c-5.4,4.5-12,5.7-18.6,6.3c-11.9,1.1-23.9,1.9-35.9,2.4
		c-6.8,0.3-11.5-4.1-15.3-9c-2.3-3-4.6-3.8-8.3-3.5c-29.2,2.1-58.4,5.2-87.7,4.4c-9.4-0.3-18.7-1-27.6-4.4
		c-7.2-2.8-12.7-7.5-16.7-14c-0.4-0.7-1-1.4-2-2.8c-0.8,4.4-1.3,8.1-2.1,11.8c-1.7,8.4-4.4,16.4-8.7,23.8
		c-4.7,8.1-11.2,13-20.9,13.9c-13.1,1.3-26.3,1.9-39.5,1.7c-7.5-0.1-13-3.1-15.4-10.2c-2.8-8.1-5-16.4-7.3-24.6
		c-0.5-1.9-1.2-2.7-3.3-2.8c-22.8-1.1-45.5-3.7-68.1-7.2c-8.9-1.4-17.8-2.7-26.6-4.3C145.9,343.9,145.9,343.7,140.2,337.3z
		 M248.4,329.8c0-5.4,0.5-10.2-0.1-14.8c-1.4-10-3.7-19.9-5.2-30c-1.5-10-1.3-20.1,0.9-30c5.8-25,31.5-36,53.1-22.7
		c9.2,5.6,15.2,14.2,20.1,23.5c7.6,14.7,12,30.7,17.8,46.1c4.4,11.8,9.3,23.3,14.5,34.8c3.9,8.6,10.2,15.4,19.8,17.9
		c6.8,1.7,13.8,3.4,20.7,3.5c15.4,0.2,30.9,0,46.2-1c25.5-1.6,51-3.6,76.4-6c15-1.4,29.6-5.2,43.4-11.3
		c12.5-5.6,22.8-13.7,27.6-27.1c3.8-10.7,4.6-21.7,2.9-32.9c-1.3-8.1-3.3-16-8.1-22.9c-1.6-2.3-3.4-2.9-6-2.2
		c-4.9,1.3-9.8,2.7-14.8,3.7c-1.7,0.3-3.8-0.2-5.3-1.1c-2.5-1.5-4.6-3.6-7-5.3c-2.1-1.6-2.4-3.2-0.6-5.1c3-3.2,6.2-6.2,9.1-9.5
		c0.8-0.9,1.7-2.5,1.4-3.3c-1.6-3.7-8.9-5.4-12.1-2.9c-4.2,3.4-8.4,7-12.5,10.7c-4.6,4.2-9.5,6.7-16.2,6.5
		c-21.7-0.6-43.3,0.8-64.9,3.3c-5.4,0.6-10.8,1.7-16.4-0.2c-14.6-4.9-29.4-9.2-44.1-13.6c-2.5-0.8-5.1-1.1-7.7-1.7
		c-2.4-0.6-5.1-0.7-7.1-1.9c-19.7-11.3-40.7-18.6-63.5-20.4c-16-1.3-31.8,0-47.5,2.2c-10,1.4-20,3.4-30,5c-2.3,0.4-4.7,0.3-7,0.4
		c-0.1-0.5-0.2-0.9-0.3-1.4c4.2-1.3,8.4-2.5,12.2-3.7c-2-4.5-4-8.3-5.4-12.5c-1.5-4.4-2.6-9-3.3-13.6c-1.8-11.7-3.6-23.5-4.9-35.3
		c-0.6-5.4,1.3-7.5,6.3-9.5c15.2-6.2,30.9-7.2,46.9-4.6c9,1.4,17.9,3.8,26.9,5.4c13.1,2.4,26.3,4.6,39.4,6.9
		c3.7,0.6,7.3,1.4,10.9,2.1c0.1-0.4,0.3-0.7,0.4-1.1c-4.7-2.2-9.2-4.8-14.1-6.6c-14.2-5.3-29-8.4-44.1-10.2
		c-11.4-1.3-22.9-2.6-34.4-2.9c-14.6-0.4-29.3-0.5-43.9,0.4c-12.2,0.8-24.3,3.2-36.5,4.9c-14.7,2.1-28.6,7-41.5,14.3
		c-12.1,6.8-23.9,13.9-35.9,20.9c-1.3,0.8-2.6,1.5-4.3,2.5c2.2,1.4,3.9,2.5,5.7,3.7c-0.2,0.4-0.3,0.8-0.5,1.2
		c-5.7-1.7-11.4-3.5-17.1-5.2c-0.1,0.2-0.1,0.4-0.2,0.6c7.7,5.1,15.4,10.3,23.6,15.8c-0.6-2.4-1.1-4.1-1.7-6.7
		c1.9,0.5,3.4,0.6,4.6,1.2c16.1,7.3,30.8,16.8,43.8,28.9c2.8,2.6,5.8,2.5,9.7,2.4c-0.9-1.5-1.6-2.5-2.1-3.6
		c-0.3-0.7-0.3-1.6-0.5-2.4c0.9,0.1,1.8,0,2.7,0.3c0.8,0.3,1.5,0.9,2.1,1.5c4.1,4.1,9,6.2,15,6c3.2-0.1,3.8,1.4,2,4.3
		c-1.2,1.9-2.2,3.6-0.3,5.8c9.8,11.7,19.1,23.6,26.8,36.9c8.4,14.4,17.1,28.7,25.3,43.2C242.9,317,245.3,323.2,248.4,329.8z
		 M271.3,388.5c1.5,0.5,3,1.4,4.5,1.4c8,0.1,16,0.3,23.9-0.1c6.7-0.3,13.4-1.2,20-2.4c3.8-0.7,7.7-2.5,9.1-6.6
		c1.9-5.6,4-11.3,4.7-17.2c1.5-13.1,2.3-26.2,3.2-39.3c0.1-1.9-0.3-3.9-0.9-5.7c-5.2-15-10.3-30-15.9-44.9
		c-2.7-7.3-6.4-14.2-9.8-21.2c-0.6-1.2-2.5-2.4-3.9-2.4c-10-0.2-20.1-0.1-30.1-0.1c-1.3,0-2.5,0.5-3.8,0.7c1.9,3.8,3.8,7,5.1,10.4
		c4.7,11.6,6.5,23.9,7.7,36.2c2,20.8,3,41.7-0.8,62.4c-1.3,7.4-3.9,14.6-6.3,21.8c-0.8,2.3-2.3,4.6-5.8,5.6c0.6-1.7,0.9-2.8,1.4-3.8
		c1-2.2,2.5-4.2,3.2-6.5c2.6-9,5-17.9,5.8-27.4c2.1-25.7,1-51.1-4.6-76.2c-1.5-6.8-3.4-13.5-7.7-19.1c-2-2.6-3-2.7-5.3-0.3
		c-4.2,4.2-6.2,9.7-7.9,15.2c-4.4,14.2-6.1,28.9-5.7,43.6c0.4,13.1,1.7,26.3,3.5,39.3c1.6,11.2,3.9,22.3,9.5,32.4
		C266.5,388.6,267.1,389,271.3,388.5z M147.3,215c-7.9-6.9-16.3-13-26.2-17.3c-0.1,0.9-0.3,1.3-0.3,1.6c0.1,1.7,0.3,3.3,0.3,5
		c0,1.1-0.4,2.2-0.7,3.2c-0.9-0.4-2-0.6-2.8-1.2c-13.4-11-28.2-19.8-43.6-27.7c-8-4.1-16.1-6.2-25.1-4.8c-1.4,0.2-2.9,0.3-4.4,0.5
		c-9.1,1.1-17.8,3.3-26.1,7.3c-2.6,1.3-3.7,2.8-2.6,5.8c1,2.8,1.8,5.8,2.6,8.7c0.2,0.8,0.3,1.7,0.4,2.6c-0.3,0.1-0.6,0.3-0.9,0.4
		c-1.5-2.4-3-4.7-5-7.9c-0.6,2.3-1.2,3.8-1.4,5.3c-2.5,14.1-0.3,27.8,3.5,41.3c1.3,4.6,5.8,6.6,9.4,9.4c0.5-1.3,0.7-2.3,0.7-3.4
		c0.4-8.1,1.4-16,4.7-23.6c6.9-16,27.9-19.3,39-4.1c5.5,7.6,9.2,16.1,11.6,25.1c2.8,10.5,5.2,21.2,7.8,31.8c0.5,2,0.7,3.9,3,5
		c3.7,1.7,7.3,3.7,11,5.5c1.2,0.6,2.4,1,4,1.7c-0.2-2.3-0.5-4-0.6-5.7c-0.6-7.5-0.6-7.4,6.6-5.7c1.6,0.4,3.6,1.5,5.2-0.9
		c-1.4-0.4-2.7-0.6-3.7-1.2c-1.6-0.9-3.7-1.8-4.5-3.3c-2.3-4.2-3.7-8.8-3.4-13.7c0.6-11.3,6-20.5,13.1-28.7c2.2-2.6,5.2-4.7,8.1-6.6
		C133.2,215.5,140.2,215,147.3,215z M478.3,229.9c-0.1,0.5-0.3,0.9-0.4,1.4c-22.1-7.7-44.7-13.4-67.9-16.7
		c-23.2-3.3-46.4-4.1-69.8-1.3c1,0.8,2,1.2,3.1,1.6c9.6,3.4,19,7.4,27.2,13.5c5.4,4,11.4,5.5,17.6,7.2c14,3.7,27.9,7.8,41.9,11.6
		c3.8,1,7.8,2.7,11.6,2.4c18.9-1.2,37.7-2.9,56.5-4.3c1.9-0.1,3.8,0,6.2,0c-2.7-3.1-2.9-4.3-1.1-5.4c2-1.3,7-1.4,8.7,0.2
		c0.6,0.6,0.5,2.1,0.4,3.1c-0.1,0.5-1.1,0.9-1.6,1.4c5.3,0.3,10.7,1.7,15.3-2.3c5.4-4.8,11-9.4,16.5-14.1c0.3-0.2,0.3-0.7,0.6-1.4
		c-19.2-10.2-39.9-14.4-61-17c-15.8-1.9-58.5-1.6-63.5,0.8c10.2,2.6,20.4,5,30.5,7.9C459.1,221.4,469.2,224.5,478.3,229.9z
		 M327.2,176.7c1,1.1,1.4,1.6,1.9,2c5.8,6,6.9,14.5,2.9,21.9c-4.4,8-14.1,8.8-19.6,1.6c-3.8-5-4.6-10.9-2.4-16.6
		c1.3-3.4,3.9-6.3,6-9.6c-1.5-0.2-3.4-0.4-5.3-0.7c-11.1-1.8-22.1-3.9-33.2-5.2c-14.8-1.7-29.6-0.3-44.2,2.9c-2,0.4-2.8,1.3-2.4,3.5
		c1.5,7.2,2.7,14.4,4.3,21.5c0.8,3.7,2,7.4,3.4,10.9c2,4.8,5.5,6.3,10.6,5.4c10.7-1.7,21.3-4.1,32.1-4.9c11.3-0.8,22.8-0.2,34.2,0.1
		c4.9,0.1,10,1.8,14.7,1c20.5-3.4,41.1-4.1,61.8-2.3c0.8,0.1,1.6-0.1,2.7-0.1c-0.2-0.9-0.3-1.5-0.5-2c-3.6-5.7-7.1-11.4-10.8-17
		c-0.7-1-2-1.8-3.2-2.3c-16-6.6-32.6-9.7-49.9-10.2C329.6,176.4,328.8,176.5,327.2,176.7z M152.7,143.6c-0.1-0.3-0.2-0.7-0.3-1
		c-2.3,0-4.6,0-6.9,0c-16.6-0.3-33.1,0.2-49.6,2.1c-3.8,0.5-7.9,0.8-11.6,0c-11.1-2.5-22.3-5.1-33.7-5c-11.2,0.1-22.4,0.5-33.6,0.8
		c-2.9,0.1-4.4,1.6-4.7,4.4c-0.1,0.8-0.2,1.5-0.3,2.3c-1.2,9.6-0.1,19.1,1.5,28.5c0.2,1.5,0.9,3,1.4,4.7c3.4-1.6,6.2-3.2,9.2-4.4
		c20.1-7.9,40.8-8,61.5-2.9c11.7,2.9,11.6,3.2,21.9-3.4c0.1-0.1,0.2-0.1,0.2-0.2c14-8.8,27.9-18,43-24.8
		C151.4,144.6,152,144.1,152.7,143.6z M168.9,311.6c-0.2,0.2-0.3,0.4-0.5,0.6c0.6,1,1.1,1.9,1.7,2.9c2.1,3.8,4.3,7.7,6.3,11.6
		c0.3,0.6,0,1.6-0.1,2.5c-0.8-0.1-1.7,0-2.4-0.4c-7.6-4.3-15-8.8-22.6-12.9c-8.2-4.4-16.3-9.4-26.2-9.1c-4.8,0.2-7.8-2.3-10.2-6.1
		c-0.9-1.3-2-2.8-3.4-3.4c-5.7-2.5-11.5-4.8-17.3-7.2c-2.2-0.9-3,0.1-2.8,2.1c0.3,2.3,0.9,4.6,1.1,6.9c0.2,3.9,2.4,5.7,6,6.4
		c10,1.9,19.9,4,29.9,5.8c4.4,0.8,7.5,2.5,9.2,7c2,5.2,4.6,10.1,6.9,15.2c1.8,3.9,4.7,6.1,9.2,6.7c14.5,2.1,28.9,4.8,43.4,6.6
		c16.7,2,33.4,3.3,50.1,4.9c3.6,0.3,4.2-0.4,3.8-3.9c-0.3-3.1-0.7-6.2-1-9.3c-0.3-3.2-0.1-6.3-4.5-7.7c-3.8-1.2-7-4.2-10.6-6.1
		c-7.3-3.8-14.6-7.5-22-11c-2.7-1.3-3.3-0.6-2.8,2.3c0.5,3.6,1.1,7.1,1.5,10.7c0.1,1-0.2,2-0.4,3c-1.1-0.2-2.2-0.3-3.2-0.7
		c-12.1-5.5-24.3-11.1-36.4-16.7C170.7,311.9,169.7,311.8,168.9,311.6z M378.9,182.8c-0.7-1.5-1-2.3-1.4-3
		c-2.5-3.6-5.2-7.1-7.4-10.9c-3-5.1-7.4-7.7-13.1-8.7c-15.4-2.8-30.8-6.1-46.2-8.8c-13.5-2.4-27.1-4.7-40.7-6.2
		c-12.3-1.3-24.6-0.3-36.3,4.3c-4.1,1.6-4.9,2.4-4.7,6.9c0.2,3.4,0.7,6.8,0.9,10.2c0.1,2.7,1.5,3.2,3.9,2.9c3.4-0.5,6.8-1,10.1-1.4
		c16.4-2.2,32.7-2.2,49,0.8c11.3,2.1,22.6,4.2,34.2,4.3c12.3,0.2,24.6,1.4,36.5,4.7C368.3,179.4,373.1,181,378.9,182.8z M34.1,281.1
		c-0.1,1.7-0.3,3.3-0.3,5c0,1.7,0.3,3.3,0.4,5c0.8,15.2,4.9,29.4,12.6,42.7c7.2,12.4,17.6,9.9,24.5,1.4c4.1-5,6.3-11.1,7.4-17.3
		c1.4-8.1,2.1-16.4,2.7-24.6c1.1-14-1-27.6-5.7-40.8c-2.3-6.4-5.4-12.3-11-16.6c-3.7-2.8-7.6-3.5-12.1-2.3
		c-5.4,1.4-7.7,5.7-9.9,10.1C36.6,255.3,34.7,268.1,34.1,281.1z M233,312.1c0.2-0.2,0.4-0.4,0.6-0.5c-0.4-1-0.8-2.1-1.4-3
		c-9.5-15.1-18.8-30.3-28.6-45.2c-5.7-8.6-12.3-16.6-18.6-24.8c-2.7-3.6-3.2-3.5-5.8,0.2c-1.7,2.4-3.2,4.9-5,7.2
		c-2.5,3.2-5.1,6.3-2.9,10.7c0.1,0.2,0,0.6,0.1,0.9c0.4,13.1,0.8,26.1,1.1,39.2c0,1.9,0.7,3,2.4,3.9c7.6,4.1,15.2,8.4,22.7,12.7
		c1.1,0.6,2.1,1.2,3.9,2.1c-0.3-1.8-0.4-3-0.8-4c-2.5-6.1-5.2-12.2-7.7-18.3c-0.5-1.2-0.7-2.5-1-3.8c1.3,0.2,2.9,0.1,4,0.8
		c10.7,6.2,21.4,12.5,32,18.8C229.7,309.9,231.4,311,233,312.1z M101.9,309.7c-2.2-0.6-3.9-1.1-5.7-1.6c-4-1.1-6.3-3.8-7-7.8
		c-1.3-7.3-2.3-14.6-3.5-21.9c-0.5-3-1.2-5.9-1.7-8.9c-0.5,1-0.6,2-0.5,2.9c1.2,11.9,1.4,23.8,0,35.6c-1,8.2-2.6,16.4-6.5,23.8
		c-2.9,5.6-6.8,10.2-13.1,12.3c-0.7,0.2-1.4,0.4-2,0.7c0,0.3,0,0.6,0.1,0.9c4.6,0.3,9.3,0.9,13.9,0.9c15.1-0.1,30.2-0.3,45.3-0.8
		c2.9-0.1,6-1.1,8.6-2.4c2.4-1.2,4.3-3.4,5-6.7c-2,0-3.4,0.2-4.9,0c-1.8-0.3-3.5-0.9-5.2-1.4c-2.3-0.7-4.5-1.7-6.8-2.1
		c-1.9-0.3-3.9,0-5.8,0.1c-6.4,0.2-9.9-2.1-12.6-8C96.4,318.5,96.9,315,101.9,309.7z M135.8,292.3c0.7,1,1.3,1.6,1.7,2.4
		c2.2,3.9,5.7,6,10.1,6.1c6,0.2,12.1,0.2,18.1-0.1c4.1-0.2,5.3-1.8,5.2-5.8c-0.4-12.7-0.7-25.4-1.3-38c-0.1-1.7-1.3-3.7-2.6-4.9
		c-1.3-1.3-3.4-2-5.2-2.5c-6.2-2-6.1-1.9-3-7.8c1.4-2.5,3.1-3.2,5.7-2.7c2.8,0.5,5.6,1.2,8.4,1c1.9-0.1,4.3-1.1,5.5-2.5
		c2.8-3.4,5.1-7.3,7.6-11.1c1.1-1.7,1.2-3.1-1.4-3.4c-6.5-0.7-13-1.4-19.4-2.2c-4-0.5-6.8,1.4-9.1,4.2c-7.7,9.1-14.3,18.8-18.2,30.1
		c-0.8,2.2-1.1,4.8-1,7.1c0.1,2.8,1.8,4.7,4.7,5.3c1.7,0.3,3.5,0.6,5.2,0.6c8.5,0.1,8.2-0.7,7.4,9c-0.4,4.3-2.2,5.6-6.5,5.2
		c-4.1-0.4-8.1-0.9-12.2-1.5c-0.7-0.1-1.1-1.4-1.7-2.2c2.9-0.1,5.1,0.3,7.3,0.7c2.2,0.4,4.4,0.9,6.6,1.2c1.5,0.2,3.1,0.4,3.8-2.1
		c-1.6-0.3-3-0.6-4.4-0.8c-2-0.3-4.1-0.4-6.1-0.7c-4.8-0.7-7.8-3.8-7-8.5c1-6,2.4-12.1,4.5-17.7c2.2-5.7,5.8-10.8,8.4-16.4
		c1.9-4.1,4.2-8.2,3.9-13c-0.2-2.1-0.7-3.9-3.2-4.3c-7.8-1.1-15.2,0.2-21.8,4.7c-5.8,3.9-9.8,9.5-13.1,15.5
		c-3.1,5.8-5.3,11.9-5.5,18.6c-0.1,4.4,2.4,7.1,6.7,7.6c1.3,0.1,2.6-0.1,3.8,0.2c0.8,0.2,2,0.9,2.1,1.5c0.7,3.4,1,7.1-1.4,9.8
		c-2.1,2.3-4.9,0.5-7.4-0.3c-0.3-0.1-0.5-0.2-0.8-0.3c-2.8-0.9-3.5-0.3-3.5,2.6c-0.1,6.4,2.8,11.7,6,16.8c1,1.6,3.4,2.7,5.3,3.1
		c3.1,0.7,6.4,0.6,9.6,0.8C133.5,298,133.6,297.9,135.8,292.3z M492.1,359.2c3.6,6,8.2,8.8,14.1,8.4c11.1-0.7,22.2-1.3,33.2-2.5
		c4.5-0.5,9.3-1.4,13.1-3.6c7.4-4.5,11.7-11.8,14.3-20c0.1-0.2-0.2-0.5-0.4-0.9C543.4,353.3,518.1,356.6,492.1,359.2z M555.8,257
		c1-0.2,1.4-0.3,1.9-0.5c4.9-1.2,9.8-2.4,14.7-3.6c2.6-0.6,3.1-1.5,1.2-3.4c-3.9-4.1-8.1-8.1-12.2-12.1c-2.2-2.1-4.2-1.6-6.1,0.3
		c-1.9,1.8-3.6,3.8-5.4,5.7c-5.5,5.8-5.5,5.9,1.1,10.5C552.7,255,554.4,256,555.8,257z M332.5,191.5c0.3-0.1,0.5-0.2,0.8-0.3
		c-1.3-3.2-2.3-6.6-4.1-9.4c-3.5-5.4-11-5.5-15-0.6c-4.6,5.7-4.6,14.7,0.1,20.4c3.8,4.7,10.6,4.7,14.6,0.2
		C331.4,198.8,332.5,195.3,332.5,191.5z M132.5,329.7c0-3.9-3.3-10.4-6.4-12.7c-2.8-2-6.5-1.1-7.3,1.7c-1.1,4.1,3.1,13.3,7,15.2
		C129.7,335.9,132.4,334.2,132.5,329.7z M113.3,326.1c-0.6-4.8-2.4-8.6-5.5-11.3c-1.6-1.4-4.4-2-6.6-1.7c-0.8,0.1-1.7,3.6-1.6,5.6
		c0.1,4.3,2,7.8,5.2,10.7c1.6,1.4,3.5,2.3,5.3,1C111.5,329.4,112.2,327.5,113.3,326.1z M59.5,228.3c0,0.3,0,0.7,0,1
		c15.7,5.9,18.3,20.5,23.1,33.9c-0.4-2.7-0.8-5.4-1.6-7.9c-2.7-8.6-5.5-17.2-8.5-25.7c-0.3-1-1.8-2.2-2.7-2.2
		C66.4,227.5,62.9,228,59.5,228.3z M107.5,312.1c5.1,5.3,7.7,10.7,5.9,17.6c-0.1,0.4,0.8,1.5,1.2,1.5c1.5,0,3-0.3,4.5-0.5
		c-0.2-1.3-0.1-2.6-0.6-3.8c-2-4.5-2.3-8.8,1.1-12.8c0.1-0.1,0-0.4,0-0.8C115.8,312.4,112.1,310.6,107.5,312.1z M340.1,328.2
		c-0.2,0.1-0.4,0.2-0.5,0.3c-0.7,11.2-1.5,22.5-2.3,34.5c0.4-1.1,0.6-1.4,0.7-1.7c1.4-8.9,3.1-17.8,4.2-26.7
		C342.3,332.6,340.8,330.4,340.1,328.2z M133.2,334.6c2.3-0.2,4.1-0.3,7-0.5c-3-6.2-5.5-11.6-8.3-16.8c-0.6-1.1-2.5-1.5-3.8-2.2
		c-0.2,0.3-0.4,0.5-0.6,0.8C132,321.1,134.4,327,133.2,334.6z M20,254.2c1.5,6,3.6,11.6,6.8,16.9c0.6-1,0.7-1.9,0.6-2.7
		c-0.2-2-0.8-4.1-0.7-6.1C26.9,257.5,23.5,255.9,20,254.2z M151.9,226.4c0.3,0.2,0.6,0.3,1,0.5c0.9-1.4,2.5-2.8,2.4-4.1
		c0-1.3-1.8-2.5-2.8-3.8c-0.2,0.1-0.4,0.3-0.7,0.4C151.9,221.7,151.9,224.1,151.9,226.4z M30.8,268.6c0.3,0,0.6,0.1,0.9,0.1
		c0.3-1.5,0.6-2.9,0.7-4.4c0-0.6-0.6-1.2-0.9-1.8c-0.5,0.6-1.3,1.2-1.3,1.8C30.2,265.8,30.6,267.2,30.8,268.6z"/>
  <path id="XMLID_232_" d="M440.7,287.8c6,1.8,12,3.9,18.1,5.4c13.3,3.3,26.9,4.9,40.6,4.1c17.7-1,34.6-4.5,49.4-15.1
		c0.8-0.6,2.2-0.3,3.3-0.4c-0.5,1.1-0.6,2.6-1.4,3.1c-3.3,2.4-7,4.3-10.3,6.7c-1.6,1.1-3.1,2.7-3.9,4.4c-3.1,6.5-2.9,6.6-10,11.6
		c1.1,1,2,2,3.1,2.9c2.9,2.6,2.9,4-0.8,5.4c-3.9,1.5-8,2.8-12.1,3.3c-11.9,1.7-23.8,1.9-35.3-2c-17.1-5.7-32.5-14.6-46.5-25.9
		c-4.3-3.5-4.5-3.7-9.5-1.2c-0.7,0.3-1.3,1-2.1,1.1c-1.4,0.2-2.8,0.2-4.3,0.3c0.4-1.4,0.4-3.1,1.2-4.1c5-6.4,18.7-9.7,26.1-6.3
		c1,0.5,1.6,1.9,2.4,2.9c-1.1,0.8-2.1,1.8-3.4,2.2c-1.4,0.4-3,0.2-4.5,0.3C440.8,287.1,440.7,287.4,440.7,287.8z M465,299.7
		c1.4,0.6,2.8,1.3,4.3,1.7c19.3,5.9,38.8,6,58.4,1.9c2.7-0.6,5.3-4.6,5.3-8.5c-11,3.9-22.3,6.2-33.8,6.2
		C487.8,301,476.4,300.2,465,299.7z"/>
  <path id="XMLID_228_" d="M170.9,152.9c-4.8,0.1-8.2,1-10.6,4.6c-6.9,10.5-12.3,21.7-16.7,33.4c-0.3,0.9-0.7,1.8-1,2.7
		c-0.8,2.2-2.2,2.7-4.4,1.9c-9.5-3.6-18.6-8.1-27-13.8c-2.6-1.8-2.6-2.9,0-4.9c21.3-16.8,45.3-27.2,72.2-30
		c8.4-0.9,16.9-0.3,25.4,0.2c6.6,0.5,10.3,5.1,11.6,11.2c3,13.8,4.9,27.9,4.7,42.1c-0.1,5.8-2.2,10.4-7.8,12.6
		c-2.1,0.8-4.6,1.3-6.8,0.9c-19.5-3.1-38.8-6.9-57.7-12.6c-3.5-1-4-1.9-2.9-5.3c4.6-13.9,10.7-27.2,18.7-39.5
		C169.4,155.6,170,154.6,170.9,152.9z M194.9,149.3c-3.8,0.3-8.3,0.8-12.8,0.9c-4.1,0.1-6.8,2-9.1,5.3
		c-8.2,11.7-14.4,24.3-19.2,37.7c-1.8,5-1.8,5.3,3.5,6.5c17.6,3.9,35.2,7.6,52.9,11.2c6.6,1.3,11.2-2.1,11.7-8.9
		c1-14.8-1.3-29.4-4.8-43.7c-1.2-5.1-5-7.8-10.1-8.4C203.2,149.5,199.3,149.5,194.9,149.3z M158.7,155.3c-1.9,0.5-3,0.7-4.1,1.1
		c-5.7,2.4-11.7,4.4-17.1,7.4c-8,4.3-15.7,9.3-23.5,14c-1.8,1.1-1.9,2.5,0.2,3.5c7.8,3.8,15.5,7.6,23.3,11.4
		c1.9,0.9,3.1,0.4,3.8-1.6c4-11.7,9.6-22.5,16.1-33C157.8,157.5,158.1,156.7,158.7,155.3z"/>
  <path id="XMLID_224_" d="M433.2,270c-18.8-1.7-37.6-3.3-56.5-5c-2.3-0.2-3.8-1.3-4.8-3.4c-2.7-5.9-5.5-11.8-8.1-17.8
		c-1.8-4.1-0.9-5.4,3.6-5c22,2.1,43.5,6.8,64.2,14.6c2.5,0.9,4.7,3,6.7,4.9c2.2,2.1,4,4.5,5.8,6.9c1.7,2.2,1,3.7-1.8,3.8
		c-3,0.1-6,0-9.1,0C433.2,269.5,433.2,269.8,433.2,270z M384,243.4c0.1,1,0.1,1.6,0.3,2.1c2.5,5.5,5,11,7.4,16.5
		c0.9,2.1,2.4,2.9,4.5,3c13.9,0.7,27.9,1.3,41.8,2c1.1,0.1,2.2-0.1,3.4-0.2c-0.8-3.4-6.6-9.7-10.1-11c-13.7-5.2-27.8-9.1-42.2-11.8
		C387.4,243.8,385.8,243.7,384,243.4z M390.3,264.4c-0.5-1.8-0.6-2.7-0.9-3.6c-2.1-4.7-4.4-9.4-6.4-14.1c-1.2-2.7-2.9-4.5-6.1-4.6
		c-2.7-0.1-5.4-0.5-8.2-0.7c-2.9-0.2-3.4,0.5-2.2,3.2c2.1,4.8,4.2,9.6,6.5,14.4c0.6,1.3,1.6,3,2.7,3.2
		C380.3,263.2,385,263.7,390.3,264.4z"/>
  <path id="XMLID_221_" d="M320.5,224.4c0.4-1.8,0.6-3,0.9-4.1c1-3.7,2.1-4.2,5.2-1.9c2.4,1.8,4.4,4,6.7,6
		c6.5,5.5,12.3,11.7,16.9,18.9c1.1,1.8,2.1,3.7,2.6,6.1c-7.1-4-13-9.8-21.5-12c1.6,3.5,3,6.7,4.4,9.8c-0.3,0.2-0.7,0.5-1,0.7
		c-1.7-1.1-3.4-2.3-5.2-3.4c-5.9-3.8-12.2-6.4-19.1-7.8c-2.2-0.5-3.6-1.5-4.1-3.6c-1-4.7-1.9-9.5-2.7-14.3c-0.1-0.8,0.3-2.1,0.9-2.5
		c0.6-0.3,1.9,0,2.6,0.5c3.5,2.1,6.9,4.3,10.4,6.5C318.5,223.6,319.4,223.9,320.5,224.4z M345.9,242.1c0.2-0.2,0.3-0.4,0.5-0.6
		c-0.5-0.8-0.9-1.7-1.6-2.4c-5.6-5.7-11.2-11.4-17-16.9c-1-1-2.6-1.3-4-1.9c-0.4,1.4-0.9,2.9-1.3,4.3c0,0.1,0,0.2,0,0.3
		c-0.3,1-0.6,1.9-0.9,2.8c-0.9-0.5-1.8-1-2.7-1.5c-3.6-2.3-7.2-4.6-10.9-6.8c-1.6-0.9-2.9-0.4-2.5,1.6c0.7,3.4,1.3,6.9,2.6,10.2
		c0.5,1.3,2.3,2.4,3.8,3c5,2.2,10.1,4,15.1,6.1c1,0.4,2,1,2.9,1.5c0.2-0.2,0.4-0.4,0.6-0.6c-0.9-1.6-1.9-3.3-2.7-5
		c-0.3-0.6-0.2-1.4-0.2-2.2c0.7,0,1.6-0.3,2.2-0.1c2.9,1.2,5.7,2.4,8.5,3.8C341,239.2,343.4,240.7,345.9,242.1z"/>
  <path id="XMLID_215_" d="M264.6,278.2c6.8,8.6,7.9,81.9,0.8,87.9C256.4,336.7,255,307.5,264.6,278.2z M265.6,356.6
		c1.3-3.3,1-6.4,0.3-9.7c-2.3-10.8-3.8-21.7-2.7-32.8c0.7-6.2,1.6-12.3,2.4-18.5c0.3-2.7,0.6-5.4-1-8.2
		C258.8,297.2,259.1,348.6,265.6,356.6z M265.7,303.2c-0.3,4-0.5,7.1-0.8,10.3C267.7,311.4,267.9,307.2,265.7,303.2z M265,329.3
		c0.5,3.5,0.9,6.3,1.3,9.2C268.2,334.4,267.8,331.3,265,329.3z M267,325.3c0.2,0,0.4,0,0.6-0.1c0-2.8,0-5.7,0-8.5
		c-0.2,0-0.4,0-0.6,0C267,319.6,267,322.5,267,325.3z"/>
  <path id="XMLID_214_" d="M534.2,225.3c1.3,0.7,2.4,1.3,3.6,1.9c-0.9,1.1-1.6,2.7-2.8,3.2c-1.7,0.8-3.7,1.1-5.5,1.1
		c-0.8,0-2.1-0.9-2.3-1.7c-0.2-0.7,0.7-2,1.4-2.4C530.2,226.6,532.1,226.1,534.2,225.3z"/>
  <path id="XMLID_213_" d="M441.7,243.3c1.7,0.2,4.6-0.3,4.7,2.5c0.2,3.2-3,2.7-5.1,2.9c-3.2,0.3-5.3-1-5.2-2.8
		C436.2,244.1,437.7,243.3,441.7,243.3z"/>
  <path id="XMLID_210_" d="M382.2,227.8c1.3,0.5,3,0.9,4.5,1.7c0.7,0.4,1.3,1.7,1.1,2.3c-0.2,0.7-1.4,1.6-2.1,1.5
		c-2.1-0.2-4.2-0.6-6.2-1.3c-0.8-0.3-1.3-1.5-1.9-2.3c0.9-0.6,1.8-1.2,2.7-1.7C380.8,227.9,381.3,227.9,382.2,227.8z M380.6,229.1
		c-0.2,0.6-0.3,1.1-0.5,1.7c1.6,0.5,3.1,0.9,4.7,1.4c0.2-0.5,0.3-1.1,0.5-1.6C383.7,230.1,382.1,229.6,380.6,229.1z"/>
  <path id="XMLID_207_" d="M247,190.2c0.3-8.2,5-15.1,11.8-17c5.7-1.6,10.4,0.3,14.1,4.6c5.5,6.4,5.8,17.4,0.7,24.3
		c-3.1,4.2-7.3,6.6-12.6,6c-6.2-0.6-10.1-4.5-12.2-10C247.9,195.6,247.6,192.8,247,190.2z M275.2,189.5c-0.4-1.6-0.9-4.6-2.1-7.3
		c-3.5-7.9-12.2-9.9-18.6-4.4c-7.5,6.4-6.7,20.8,1.6,26.2c4.7,3.1,11,2.3,14.7-1.8C273.6,199,275,195.2,275.2,189.5z"/>
  <path id="XMLID_201_" d="M76,293.1c-1.3,7.8-2.3,15.6-4.1,23.2c-0.8,3.3-3.1,6.2-5,9.1c-2.1,3.2-6.9,2.8-9.5-0.3
		c-4-4.8-6.8-10.3-8.1-16.3c-1.9-8.5-3.6-17-3.2-25.7c0.4-8.6,1.8-16.9,5.7-24.6c1.1-2.2,2.8-4.2,4.6-6c2.4-2.5,5-2.4,7.9-0.3
		c3.3,2.4,4.8,5.9,5.9,9.5c3.3,10.2,5.2,20.6,5,31.3C75.4,293.1,75.7,293.1,76,293.1z M53.5,287.6c0.8,6.1,1.2,12.2,2.5,18.1
		c1.2,5.4,3.1,10.7,7.3,14.7c1.1,1.1,2.5,2.4,4,0.7c1.2-1.4,1.7-2.9,0.2-4.9c-2.1-2.7-4.3-5.7-5.1-9c-3.6-15.8-5.7-31.7,3.6-46.6
		c0.5-0.8,0.1-2.6-0.5-3.3c-0.5-0.5-2.4-0.4-3.1,0.1c-1.5,1.4-2.7,3-3.7,4.8C54.6,270.1,53.7,278.7,53.5,287.6z M48.4,285.5
		c0,10.2,1.6,22.5,7.6,33.8c1.1,2.1,3,3.8,4.8,5.4c0.6,0.5,2.1-0.1,3.2-0.2c-0.4-0.9-0.6-1.8-1.1-2.6c-2.3-3.7-5.6-7-6.9-11
		c-5-15-5.1-30.3,0-45.4c1.1-3.2,3.6-5.9,5.3-8.9c0.5-0.8,0.8-1.7,1.2-2.6c-1.2-0.2-2.7-1-3.4-0.5c-1.8,1.2-3.6,2.7-4.7,4.6
		C49.9,265.7,48.8,274.3,48.4,285.5z M73,296.6c-0.5-1.6-0.7-2.7-1.3-3.5c-3.5-4.9-3.8-8.4-0.7-13.4c0.9-1.5,1.2-2.8-0.8-4.4
		c-1.2,3-4.7,4.3-3.3,8.3c0.8,2.3,1.1,5,0.9,7.5c-0.1,1.6-1.5,3.2-2.6,4.6c-0.2,0.3-2.5-0.5-2.6-0.9c-0.8-4.3-2.1-8.8,1-12.9
		c0.4-0.5,0.2-1.6,0-2.3c-1.3-3.9,0.7-10.7,3.7-12.8c0.7-0.5,1.5-1.5,1.5-2.3c0-0.7-1.2-2.1-1.6-2c-0.9,0.2-2,1-2.4,1.8
		c-1.1,2.4-2.2,4.8-2.7,7.3c-1.8,8.4-2.3,16.9-0.8,25.3c1,5.3,3.1,10.4,4.9,15.5c0.4,1,2,1.4,3.1,2.1c0.5-1.2,1.1-2.3,1.7-3.7
		c-4.6-0.6-7.8-6-6.9-10.3C64.9,297.3,68.6,295.3,73,296.6z M71.7,289.5c0.3,0,0.7,0,1-0.1c-0.1-1.9-0.3-3.9-0.4-5.8
		c-0.3,0-0.7,0.1-1,0.1C70.3,285.7,70.1,287.7,71.7,289.5z"/>
  <path id="XMLID_198_" d="M155.3,298.1c-1.9,0-3.7,0-5.6,0c-6.6-0.1-9.3-2.1-11.5-8.3c-0.4-1.2-0.8-2.4-1.2-3.6
		c-1-3.1-0.3-3.9,3-3.4c3.2,0.4,6.4,1,9.6,1.2c4.5,0.3,6.2-1,6.6-5.4c0.4-3.5,0.4-7,0.5-10.5c0.1-1.9-0.8-2.9-2.7-3.1
		c-3.2-0.3-6.4-0.6-9.6-1c-3.8-0.4-5.3-1.9-4.7-5.8c0.6-3.7,1.5-7.5,3-10.9c3.7-8.8,9.3-16.4,16.1-23.1c1.1-1.1,3.2-1.9,4.9-1.8
		c4.9,0.2,9.7,0.8,14.6,1.2c4.5,0.4,4.8,1.2,2.4,4.9c-1.3,2-2.8,4-4.1,6c-1.3,2.1-3.2,2.8-5.5,2.4c-2.8-0.5-5.6-1-8.3-1.5
		c-2.2-0.4-3.8,0.2-4.8,2.3c-1.7,3.3-3.5,6.5-5.3,9.8c-0.8,1.5-0.4,2.5,1.2,2.8c1.8,0.4,3.6,0.6,5.5,0.9c4.2,0.5,6.9,3.4,7.1,7.6
		c0.5,10.7,1.1,21.4,1.7,32.1c0.3,5.6-1,7.1-6.6,7.4C159.4,298.2,157.3,298.2,155.3,298.1C155.3,298.1,155.3,298.1,155.3,298.1z
		 M154.3,296.7c0-0.1,0-0.3,0-0.4c2.3,0,4.7,0.1,7,0c4.4-0.1,5.6-1.6,5.4-6c-0.6-10.4-1.1-20.8-1.7-31.2c-0.2-3.8-1.8-5.9-5.6-6.7
		c-2.4-0.5-4.8-0.9-7.2-1.2c-1.4-0.2-2.4-0.8-1.6-2.3c2.3-4.6,4.7-9.2,7.3-13.6c0.6-1,2.6-1.6,3.9-1.5c2.8,0.2,5.6,0.9,8.3,1.6
		c2.5,0.7,4.5-0.1,5.9-2.1c1.2-1.7,2.1-3.5,3.1-5.3c0.9-1.8,0.3-2.9-1.6-3.1c-4.8-0.5-9.5-1-14.3-1.1c-1.6,0-3.8,1-4.8,2.2
		c-3.3,4-6.5,8.3-9.3,12.7c-3.6,5.7-6.4,11.8-7.5,18.6c-0.5,3.4,0,4.2,3.4,4.8c3.3,0.6,6.6,1,9.8,1.3c2.3,0.2,3.4,0.9,3.3,3.4
		c-0.2,4.1,0,8.2-0.1,12.3c-0.1,5.1-3.1,7.7-8.2,7.1c-2.8-0.3-5.6-1-8.4-1.2c-0.8-0.1-2.4,0.8-2.5,1.4c-0.9,3.9,3.8,9.8,7.8,10.1
		C149.2,296.5,151.7,296.6,154.3,296.7z"/>
  <path id="XMLID_195_" d="M139.1,219.1c2.1,0.1,3.6,0.2,5.1,0.3c3.7,0.3,5.3,2.5,3.9,6c-1.6,4.2-3.8,8.1-5.7,12.2
		c-3.1,6.7-6.5,13.3-8.9,20.3c-1.5,4.1-1.8,8.8-1.9,13.2c-0.2,6.4,0.1,12.9,0.4,19.3c0.1,3.2-1.1,4.8-4.4,4.7
		c-3.4-0.1-6.8-0.3-10.2-0.9c-1.4-0.2-3-1.3-3.8-2.4c-2.9-3.8-4.4-8.2-4.4-13c0-0.7,1.3-1.8,2.1-1.9c2-0.1,4.1,0.3,6.1,0.4
		c2.7,0.1,4-1.1,4.2-3.7c0.2-3.1,0.3-6.2,0.5-9.3c0.1-2.1-0.7-3.3-3-3.3c-10.6-0.1-10.7-5.2-8.6-12.4c2.1-7.2,5-14.1,9.8-20.1
		C125.3,222.3,131.8,219.2,139.1,219.1z M123.7,266.9c-0.4,2.8-0.6,5.6-1.1,8.4c-0.4,2.3-2,3.5-4.4,3.4c-1.8-0.1-3.5-0.2-5.3,0
		c-0.8,0.1-2.2,1.3-2.1,1.6c1.2,3.7,2.1,7.6,4.2,10.7c1,1.5,4.3,1.7,6.6,2.2c1.5,0.3,3.1,0.1,4.7,0.1c3.5,0,4.2-0.8,4.1-4.3
		c-0.1-3.5-0.1-7-0.3-10.5c-0.3-9.3,0.2-18.6,4-27.3c2.9-6.7,6.6-13,9.8-19.6c1.2-2.4,2.2-5,3-7.5c0.6-1.8-0.4-3.1-2.2-3.4
		c-9.3-1.5-17.3,0.7-23.3,8.3c-5.4,6.8-8.6,14.5-9.9,23.1c-0.7,4.8,0.8,7,5.6,7.5C123.6,260.3,123.6,260.3,123.7,266.9z"/>
  <path id="XMLID_194_" d="M329,191.5c-1,2.3-1.7,4.9-3.2,6.9c-2.1,2.8-5.8,2.6-8.1,0c-2.9-3.2-3.2-9.9-0.5-13.4
		c2.7-3.4,7-3.4,9.3,0.2C327.6,186.9,328.1,189,329,191.5z"/>
  <path id="XMLID_193_" d="M141,180.7c-3,1.6-5.5,3.2-8.2,4.2c-1.3,0.5-3.1-0.2-4.7-0.3c0.1-1.3-0.1-2.9,0.5-4
		c2.6-4.9,5.5-9.6,8.4-14.3c0.5-0.8,2.1-2,2.5-1.8c1.1,0.6,2.2,1.7,2.6,2.9c0.8,2.2,1.2,4.6,1.8,7.1c-2.1,0.2-2.5-1.5-3-3.2
		c-0.4-1.4-1.1-2.7-1.7-4c-1,1-2.2,1.8-2.9,3c-1.9,3.3-3.7,6.6-5.4,10c-0.4,0.8-0.1,1.9-0.2,2.9c0.9-0.2,1.8-0.3,2.7-0.6
		c1.9-0.8,3.6-1.8,5.5-2.5C139.3,179.9,140.1,180.5,141,180.7z"/>
  <path id="XMLID_190_" d="M270.7,190.4c-0.7,2.2-1,4.4-1.9,6.2c-2.7,5.3-8.6,5.6-12.1,0.8c-2.8-3.9-2.6-10.2,0.5-13.9
		c3.3-4,8.7-3.6,11.2,0.9C269.4,186.2,269.9,188.3,270.7,190.4z M265.1,190.7c0.7-1.6,1.3-2.3,1.3-3.1c0-0.7-0.9-1.3-1.3-1.9
		c-0.5,0.7-1.5,1.3-1.5,2C263.4,188.4,264.2,189.2,265.1,190.7z"/>
  <path id="XMLID_187_" d="M124.2,250.4c-6-0.3-7.7-2.5-6.8-7.3c0.9-4.9,3.7-8.5,7.7-11.3c2.2-1.6,4.6-1.5,6.8,0.2
		c2.3,1.7,1.4,3.9,0.5,5.8c-1.6,3.6-3.2,7.1-5.2,10.5C126.5,249.4,124.8,250,124.2,250.4z M123.2,249.2c1.3-1,3-1.7,3.8-3
		c1.7-2.9,3-6.1,4.5-9.2c0.8-1.6,1.2-3.5-0.7-4.3c-1.4-0.6-3.6-1-4.8-0.3c-4.3,2.7-6.8,6.9-7.3,12
		C118.4,247.4,119.7,248.6,123.2,249.2z"/>
  <path id="XMLID_186_" d="M127.7,234.4c0.6,1.1,1.6,2.2,1.4,2.6c-1.2,2.3-2.6,4.6-4.2,6.7c-0.4,0.5-2.1,0.3-2.8-0.2
		c-0.4-0.2-0.3-1.8,0-2.6c0.8-1.6,1.8-3.2,2.9-4.7C125.5,235.6,126.4,235.3,127.7,234.4z"/>
</g>
</svg>
